<?xml version="1.0" standalone="no"?>
<!DOCTYPE svg PUBLIC "-//W3C//DTD SVG 20010904//EN"
 "http://www.w3.org/TR/2001/REC-SVG-20010904/DTD/svg10.dtd">
<svg version="1.0" xmlns="http://www.w3.org/2000/svg"
 width="1024.000000pt" height="1024.000000pt" viewBox="0 0 1024.000000 1024.000000"
 preserveAspectRatio="xMidYMid meet">

<g transform="translate(0.000000,1024.000000) scale(0.100000,-0.100000)"
fill="#000000" stroke="none">
<path d="M5035 9193 c-324 -156 -594 -288 -598 -293 -15 -14 233 -488 405
-775 183 -304 315 -464 477 -575 44 -30 80 -57 81 -60 0 -3 -275 -142 -611
-310 -591 -295 -613 -307 -664 -362 -29 -31 -59 -74 -65 -95 -7 -21 -18 -51
-26 -68 -7 -16 -43 -145 -79 -285 -137 -528 -250 -922 -315 -1102 -32 -87 -32
-88 -128 -169 -223 -189 -443 -433 -600 -669 -138 -207 -293 -544 -336 -732
l-6 -28 92 0 c291 0 706 -74 1051 -186 451 -147 738 -284 1652 -789 376 -208
765 -404 962 -485 152 -63 352 -135 338 -122 -5 5 -48 35 -95 68 -121 84 -244
184 -490 399 -257 224 -360 307 -523 424 -189 136 -402 267 -639 395 -100 54
-99 51 -69 161 22 80 64 176 117 270 l35 64 519 -259 c285 -143 546 -268 579
-280 72 -24 148 -26 220 -4 37 11 188 105 518 325 256 171 471 313 477 315 7
3 44 -66 94 -177 l81 -181 -19 -38 c-34 -67 -69 -208 -80 -320 -20 -215 19
-471 120 -770 57 -171 178 -458 238 -563 l30 -52 63 1 c89 1 211 28 369 80
281 93 543 251 634 382 l28 41 -17 57 c-25 86 -108 273 -170 385 -187 332
-487 706 -638 794 -27 15 -82 42 -124 60 l-75 33 -115 256 -116 256 24 52 c35
79 33 202 -3 280 -47 101 -145 186 -235 204 -30 6 -45 39 -611 1297 -320 711
-586 1316 -593 1345 -6 29 -27 76 -46 105 l-35 52 21 65 c37 114 44 176 38
350 -12 344 -123 731 -322 1125 -75 147 -208 380 -223 389 -4 2 -272 -124
-597 -281z m1469 -3397 c285 -631 516 -1149 514 -1151 -17 -14 -793 -528 -803
-532 -10 -3 -1652 881 -1674 902 -8 8 122 1064 146 1185 l27 133 630 312 c347
172 634 310 637 306 4 -3 239 -523 523 -1155z"/>
<path d="M5302 6190 c-259 -68 -456 -266 -522 -526 -24 -94 -26 -251 -5 -341
61 -259 271 -471 535 -540 86 -23 262 -22 350 0 323 84 550 374 550 701 0 124
-21 214 -74 321 -96 193 -267 333 -472 385 -102 26 -261 26 -362 0z"/>
<path d="M2656 2939 c-511 -48 -987 -285 -1371 -680 -201 -207 -383 -457 -499
-688 l-27 -53 83 85 c315 321 830 524 1513 597 169 18 547 24 685 11 233 -22
487 -84 721 -174 238 -93 467 -208 944 -477 887 -501 1381 -686 2045 -766 207
-25 622 -26 780 -1 499 78 934 293 1346 665 115 104 275 277 377 410 71 92
231 331 225 337 -2 2 -33 -16 -68 -41 -397 -277 -947 -505 -1460 -603 -470
-91 -977 -85 -1430 15 -476 106 -853 264 -1632 682 -754 406 -1062 538 -1458
625 -244 55 -556 77 -774 56z"/>
</g>
</svg>
